<?xml version="1.0" standalone="no"?>
<!DOCTYPE svg PUBLIC "-//W3C//DTD SVG 20010904//EN"
 "http://www.w3.org/TR/2001/REC-SVG-20010904/DTD/svg10.dtd">
<svg version="1.0" xmlns="http://www.w3.org/2000/svg"
 width="821.000000pt" height="821.000000pt" viewBox="0 0 821.000000 821.000000"
 preserveAspectRatio="xMidYMid meet">
<metadata>
Created by potrace 1.11, written by Peter Selinger 2001-2013
</metadata>
<g transform="translate(0.000000,821.000000) scale(0.100000,-0.100000)"
fill="#000000" stroke="none">
<path d="M5430 8073 c-8 -3 -63 -36 -123 -72 -59 -36 -116 -70 -127 -76 -11
-5 -20 -13 -20 -17 0 -5 -6 -8 -12 -8 -12 -1 -117 -65 -144 -88 -6 -5 -20 -13
-32 -16 -12 -4 -20 -11 -18 -15 3 -4 -853 -8 -1902 -8 -1472 0 -1921 -3 -1967
-12 -66 -14 -175 -59 -175 -72 0 -5 -5 -9 -10 -9 -12 0 -22 -8 -79 -62 -44
-41 -101 -125 -120 -178 -39 -106 -38 -32 -35 -3226 1 -1699 4 -3100 7 -3114
2 -14 9 -38 15 -53 7 -15 15 -39 18 -52 3 -14 10 -25 15 -25 5 0 9 -9 9 -20 0
-11 5 -20 10 -20 6 0 10 -5 10 -10 0 -6 11 -23 25 -38 14 -15 25 -30 25 -33 0
-6 -178 -183 -235 -235 -16 -15 -48 -43 -70 -63 -22 -20 -63 -54 -90 -76 -28
-22 -55 -44 -61 -50 -44 -39 -232 -171 -291 -205 -23 -13 -44 -29 -47 -37 -7
-17 2 -40 18 -46 14 -5 148 77 275 168 46 33 90 65 99 70 8 6 23 17 32 25 9 8
32 27 51 42 87 68 186 158 326 296 l54 53 47 -30 c44 -28 92 -51 119 -57 6 -1
29 -8 50 -15 29 -10 215 -12 815 -13 427 0 775 -2 774 -6 -2 -3 -15 -41 -29
-86 -15 -44 -32 -94 -38 -110 -7 -16 -13 -31 -14 -34 -7 -32 -60 -178 -66
-186 -6 -7 -2 -17 9 -27 15 -14 21 -14 34 -4 13 10 52 100 62 142 2 6 8 23 14
38 7 16 12 30 12 32 0 2 5 16 12 32 6 15 12 33 14 38 1 6 16 46 32 90 l30 80
2498 1 c1375 1 2516 4 2536 7 91 16 201 72 271 140 43 42 116 142 121 168 2 8
8 27 14 42 7 16 12 34 12 42 0 8 4 16 9 19 9 6 9 6228 -1 6256 -2 8 -10 34
-17 58 -6 23 -27 68 -46 100 -82 140 -216 231 -381 258 -21 4 -581 8 -1244 9
-663 1 -1207 3 -1210 4 -3 1 2 5 10 9 60 27 222 128 230 143 10 17 12 44 8 82
-4 42 -73 77 -118 60z"/>
</g>
</svg>
